# xmcd
#
# Track frame offsets:
#	150
#	14802
#	29235
#	47200
#	57785
#	75280
#	88225
#	105210
#	123567
#	132612
#	157220
#	171385
#	182950
#	195442
#	211075
#	223265
#	237317
#	252687
#	269450
#	283650
#
# Disc length: 3966 seconds
#
# Revision: 1
# Processed by: cddbd v1.5.2PL0 Copyright (c) Steve Scherf et al.
# Submitted via: dBpowerAMP V4.0
#
DISCID=3b0f7c14
DTITLE=Various Artist - De Grootste Feesthits van 1999
DYEAR=1999
DGENRE=Folk
TTITLE0=Sugar Lee Hooper - Hooperdepoep
TTITLE1=Gebroeders Grimm - We nemen er nog een
TTITLE2=Mc Bernhard - Immer gerade Aus
TTITLE3=Big Benny - Riet aop dae tap
TTITLE4=Gerard Cox - Nooit meer verkering
TTITLE5=C'est Tout - El Bimbo
TTITLE6=Jack and Addy - Weer carnaval
TTITLE7=Tineke Schouten - De piepsjee (wie lof Jerry Springer)
TTITLE8=Feest Tubbies - Feest eh oh
TTITLE9=Havenzangers - Medley (Trouw niet voor je 40 bent, De bostella, Parijs heeft  mooie vrouwen, Geef mij maar Amsterdam, 'N pikketanussie, Polandaise Hollandaise)
TTITLE10=A Vier - Wij gaan pas weer naar buiten
TTITLE11=Schintaler - Limburgse meid
TTITLE12=Jammer - Ik bin aanders
TTITLE13=Kwik Bacchus Band - Bourbon Street  parade
TTITLE14=Erik Hulzebosch - Wat zullen we nou beleven
TTITLE15=Kees Verlee - Het vissertje uit het Biesboschland
TTITLE16=Benny Bee - Live is life
TTITLE17=Deurzakkers - Medley (Tandenborstel jive, Shalalie shalala, 'T is weer voorbij die mooie zomer, Daar bij de waterkant, Waar is toch m'n caravan, Het leven is goed in m'n Brabantse land, Tandenborstel jive)
TTITLE18=Hans Versnel - Kuku (Laurel and Hardy tune)
TTITLE19=Gebroeders de Gier and Sjors - Barney (op z'n haags hard mix)
EXTD=
EXTT0=
EXTT1=
EXTT2=
EXTT3=
EXTT4=
EXTT5=
EXTT6=
EXTT7=
EXTT8=
EXTT9=
EXTT10=
EXTT11=
EXTT12=
EXTT13=
EXTT14=
EXTT15=
EXTT16=
EXTT17=
EXTT18=
EXTT19=
PLAYORDER=
